<svg xmlns="http://www.w3.org/2000/svg" viewBox="0 0 64 64" role="img" aria-labelledby="title">
  <title>台北市垃圾車地圖 Icon</title>
  <rect width="64" height="64" rx="12" fill="#0f172a"/>
  <path d="M14 46h36v4H14z" fill="#38bdf8"/>
  <path d="M18 20h28a6 6 0 0 1 6 6v12a6 6 0 0 1-6 6H18a6 6 0 0 1-6-6V26a6 6 0 0 1 6-6z" fill="#22c55e"/>
  <path d="M24 28h12a4 4 0 0 1 4 4v8H24v-8a4 4 0 0 1 4-4z" fill="#ecfeff" opacity=".9"/>
  <circle cx="24" cy="46" r="4" fill="#f8fafc"/>
  <circle cx="40" cy="46" r="4" fill="#f8fafc"/>
  <path d="M20 18h12l2 4h-16l2-4z" fill="#38bdf8"/>
</svg>
